<svg width="624" height="429" viewBox="0 0 624 429" fill="none" xmlns="http://www.w3.org/2000/svg">
<path d="M369.573 338.385H364.115L350.86 375.81C351.9 377.629 355.538 381.892 361.776 384.387L365.674 401.54L377.37 388.285C381.788 388.025 390.936 386.882 392.184 384.387L397.642 346.182H394.523L431.168 187.125C429.576 186.031 426.872 184.701 423.371 183.755L424.221 181.601C445.956 180.062 472.926 179.935 493.543 184.786C499.261 186.606 507.734 193.363 495.882 205.838C521.612 202.719 572.292 181.667 608.157 116.953C636.85 65.182 620.113 28.848 608.157 17.153C612.524 38.361 584.507 51.46 569.953 55.358L460.017 54.578L460.796 49.9C466.254 49.12 466.254 41.324 466.254 35.866C466.254 31.499 462.616 29.368 460.796 28.848L457.678 0L439.745 24.951C428.049 22.611 428.829 38.205 428.829 41.324C428.829 43.819 431.428 44.963 432.728 45.222L430.388 54.579L423.371 55.358L413.235 106.038H559.037C555.918 130.988 528.109 143.463 514.595 146.582H439.745L446.762 111.495C434.287 104.01 422.332 107.337 417.913 109.936L410.117 146.582C400.137 145.334 396.082 171.532 395.303 184.786C397.148 184.491 399.239 184.185 401.54 183.878V184.786L369.573 338.385Z" fill="white"/>
<path d="M254.427 338.385H259.885L273.14 375.81C272.1 377.629 268.462 381.892 262.224 384.387L258.326 401.54L246.63 388.285C242.212 388.025 233.064 386.882 231.816 384.387L226.358 346.182H229.477L192.832 187.125C194.424 186.031 197.128 184.701 200.629 183.755L199.779 181.601C178.044 180.062 151.074 179.935 130.457 184.786C124.739 186.606 116.266 193.363 128.118 205.838C102.388 202.719 51.7083 181.667 15.8426 116.953C-12.8499 65.182 3.88742 28.848 15.8426 17.153C11.4764 38.361 39.4932 51.46 54.0473 55.358L163.983 54.578L163.204 49.9C157.746 49.12 157.746 41.324 157.746 35.866C157.746 31.499 161.384 29.368 163.204 28.848L166.322 0L184.255 24.951C195.951 22.611 195.171 38.205 195.171 41.324C195.171 43.819 192.572 44.963 191.272 45.222L193.612 54.579L200.629 55.358L210.765 106.038H64.963C68.0817 130.988 95.8906 143.463 109.405 146.582H184.255L177.238 111.495C189.713 104.01 201.668 107.337 206.087 109.936L213.883 146.582C223.863 145.334 227.918 171.532 228.697 184.786C226.852 184.491 224.761 184.185 222.46 183.878V184.786L254.427 338.385Z" fill="white"/>
<path d="M312.124 428.049L339.945 361.775C337.346 358.397 332.304 350.704 332.927 346.961C333.551 343.219 373.211 146.841 392.963 49.12C396.342 43.663 404.971 32.435 412.456 31.188C394.523 28.069 356.786 20.896 349.301 17.153C351.38 21.571 354.915 32.279 352.42 39.764L312.124 205.058L271.58 39.764C269.085 32.279 272.62 21.571 274.699 17.153C267.214 20.896 229.477 28.069 211.544 31.188C219.029 32.435 227.658 43.663 231.037 49.12C250.789 146.841 290.449 343.219 291.073 346.961C291.696 350.704 286.654 358.397 284.055 361.775L312.124 428.049Z" fill="white"/>
</svg>
