<svg width="13282" height="6642" viewBox="0 0 13282 6642" fill="none" xmlns="http://www.w3.org/2000/svg">
<path d="M1 5811H416M1 5811V6226M1 5811V5396M416 5811V6226M416 5811V5396M416 5811H831M416 6226H1M416 6226V6641M416 6226H831M1 6226V6641H416M1 2491H416M1 2491V2906M1 2491V2076M416 2491V2906M416 2491V2076M416 2491H831M416 2906H1M416 2906V3321M416 2906H831M1 2906V3321M6641 5811H7056M6641 5811V6226M6641 5811V5396M6641 5811H6226M7056 5811V6226M7056 5811V5396M7056 5811H7471M7056 6226H6641M7056 6226V6641M7056 6226H7471M6641 6226V6641M6641 6226H6226M6641 2491H7056M6641 2491V2906M6641 2491V2076M6641 2491H6226M7056 2491V2906M7056 2491V2076M7056 2491H7471M7056 2906H6641M7056 2906V3321M7056 2906H7471M6641 2906V3321M6641 2906H6226M1 4151H416M1 4151V4566M1 4151V3736M416 4151V4566M416 4151V3736M416 4151H831M416 4566H1M416 4566V4981M416 4566H831M1 4566V4981M1 831H416M1 831V1246M1 831V416M416 831V1246M416 831V416M416 831H831M416 1246H1M416 1246V1661M416 1246H831M1 1246V1661M6641 4151H7056M6641 4151V4566M6641 4151V3736M6641 4151H6226M7056 4151V4566M7056 4151V3736M7056 4151H7471M7056 4566H6641M7056 4566V4981M7056 4566H7471M6641 4566V4981M6641 4566H6226M6641 831H7056M6641 831V1246M6641 831V416M6641 831H6226M7056 831V1246M7056 831V416M7056 831H7471M7056 1246H6641M7056 1246V1661M7056 1246H7471M6641 1246V1661M6641 1246H6226M3321 5811H3736M3321 5811V6226M3321 5811V5396M3321 5811H2906M3736 5811V6226M3736 5811V5396M3736 5811H4151M3736 6226H3321M3736 6226V6641M3736 6226H4151M3321 6226V6641M3321 6226H2906M3321 2491H3736M3321 2491V2906M3321 2491V2076M3321 2491H2906M3736 2491V2906M3736 2491V2076M3736 2491H4151M3736 2906H3321M3736 2906V3321M3736 2906H4151M3321 2906V3321M3321 2906H2906M9961 5811H10376M9961 5811V6226M9961 5811V5396M9961 5811H9546M10376 5811V6226M10376 5811V5396M10376 5811H10791M10376 6226H9961M10376 6226V6641M10376 6226H10791M9961 6226V6641M9961 6226H9546M9961 2491H10376M9961 2491V2906M9961 2491V2076M9961 2491H9546M10376 2491V2906M10376 2491V2076M10376 2491H10791M10376 2906H9961M10376 2906V3321M10376 2906H10791M9961 2906V3321M9961 2906H9546M3321 4151H3736M3321 4151V4566M3321 4151V3736M3321 4151H2906M3736 4151V4566M3736 4151V3736M3736 4151H4151M3736 4566H3321M3736 4566V4981M3736 4566H4151M3321 4566V4981M3321 4566H2906M3321 831H3736M3321 831V1246M3321 831V416M3321 831H2906M3736 831V1246M3736 831V416M3736 831H4151M3736 1246H3321M3736 1246V1661M3736 1246H4151M3321 1246V1661M3321 1246H2906M9961 4151H10376M9961 4151V4566M9961 4151V3736M9961 4151H9546M10376 4151V4566M10376 4151V3736M10376 4151H10791M10376 4566H9961M10376 4566V4981M10376 4566H10791M9961 4566V4981M9961 4566H9546M9961 831H10376M9961 831V1246M9961 831V416M9961 831H9546M10376 831V1246M10376 831V416M10376 831H10791M10376 1246H9961M10376 1246V1661M10376 1246H10791M9961 1246V1661M9961 1246H9546M1661 5811H2076M1661 5811V6226M1661 5811V5396M1661 5811H1246M2076 5811V6226M2076 5811V5396M2076 5811H2491M2076 6226H1661M2076 6226V6641M2076 6226H2491M1661 6226V6641M1661 6226H1246M1661 2491H2076M1661 2491V2906M1661 2491V2076M1661 2491H1246M2076 2491V2906M2076 2491V2076M2076 2491H2491M2076 2906H1661M2076 2906V3321M2076 2906H2491M1661 2906V3321M1661 2906H1246M8301 5811H8716M8301 5811V6226M8301 5811V5396M8301 5811H7886M8716 5811V6226M8716 5811V5396M8716 5811H9131M8716 6226H8301M8716 6226V6641M8716 6226H9131M8301 6226V6641M8301 6226H7886M8301 2491H8716M8301 2491V2906M8301 2491V2076M8301 2491H7886M8716 2491V2906M8716 2491V2076M8716 2491H9131M8716 2906H8301M8716 2906V3321M8716 2906H9131M8301 2906V3321M8301 2906H7886M1661 4151H2076M1661 4151V4566M1661 4151V3736M1661 4151H1246M2076 4151V4566M2076 4151V3736M2076 4151H2491M2076 4566H1661M2076 4566V4981M2076 4566H2491M1661 4566V4981M1661 4566H1246M1661 831H2076M1661 831V1246M1661 831V416M1661 831H1246M2076 831V1246M2076 831V416M2076 831H2491M2076 1246H1661M2076 1246V1661M2076 1246H2491M1661 1246V1661M1661 1246H1246M8301 4151H8716M8301 4151V4566M8301 4151V3736M8301 4151H7886M8716 4151V4566M8716 4151V3736M8716 4151H9131M8716 4566H8301M8716 4566V4981M8716 4566H9131M8301 4566V4981M8301 4566H7886M8301 831H8716M8301 831V1246M8301 831V416M8301 831H7886M8716 831V1246M8716 831V416M8716 831H9131M8716 1246H8301M8716 1246V1661M8716 1246H9131M8301 1246V1661M8301 1246H7886M4981 5811H5396M4981 5811V6226M4981 5811V5396M4981 5811H4566M5396 5811V6226M5396 5811V5396M5396 5811H5811M5396 6226H4981M5396 6226V6641M5396 6226H5811M4981 6226V6641M4981 6226H4566M4981 2491H5396M4981 2491V2906M4981 2491V2076M4981 2491H4566M5396 2491V2906M5396 2491V2076M5396 2491H5811M5396 2906H4981M5396 2906V3321M5396 2906H5811M4981 2906V3321M4981 2906H4566M11621 5811H12036M11621 5811V6226M11621 5811V5396M11621 5811H11206M12036 5811V6226M12036 5811V5396M12036 5811H12451M12036 6226H11621M12036 6226V6641M12036 6226H12451M11621 6226V6641M11621 6226H11206M11621 2491H12036M11621 2491V2906M11621 2491V2076M11621 2491H11206M12036 2491V2906M12036 2491V2076M12036 2491H12451M12036 2906H11621M12036 2906V3321M12036 2906H12451M11621 2906V3321M11621 2906H11206M4981 4151H5396M4981 4151V4566M4981 4151V3736M4981 4151H4566M5396 4151V4566M5396 4151V3736M5396 4151H5811M5396 4566H4981M5396 4566V4981M5396 4566H5811M4981 4566V4981M4981 4566H4566M4981 831H5396M4981 831V1246M4981 831V416M4981 831H4566M5396 831V1246M5396 831V416M5396 831H5811M5396 1246H4981M5396 1246V1661M5396 1246H5811M4981 1246V1661M4981 1246H4566M11621 4151H12036M11621 4151V4566M11621 4151V3736M11621 4151H11206M12036 4151V4566M12036 4151V3736M12036 4151H12451M12036 4566H11621M12036 4566V4981M12036 4566H12451M11621 4566V4981M11621 4566H11206M11621 831H12036M11621 831V1246M11621 831V416M11621 831H11206M12036 831V1246M12036 831V416M12036 831H12451M12036 1246H11621M12036 1246V1661M12036 1246H12451M11621 1246V1661M11621 1246H11206M1 4981H416M1 4981V5396M416 4981V5396M416 4981H831M416 5396H1M416 5396H831M1 1661H416M1 1661V2076M416 1661V2076M416 1661H831M416 2076H1M416 2076H831M6641 4981H7056M6641 4981V5396M6641 4981H6226M7056 4981V5396M7056 4981H7471M7056 5396H6641M7056 5396H7471M6641 5396H6226M6641 1661H7056M6641 1661V2076M6641 1661H6226M7056 1661V2076M7056 1661H7471M7056 2076H6641M7056 2076H7471M6641 2076H6226M1 3321H416M1 3321V3736M416 3321V3736M416 3321H831M416 3736H1M416 3736H831M416 1H1V416M416 1V416M416 1H831M416 416H1M416 416H831M6641 3321H7056M6641 3321V3736M6641 3321H6226M7056 3321V3736M7056 3321H7471M7056 3736H6641M7056 3736H7471M6641 3736H6226M6641 1H7056M6641 1V416M6641 1H6226M7056 1V416M7056 1H7471M7056 416H6641M7056 416H7471M6641 416H6226M3321 4981H3736M3321 4981V5396M3321 4981H2906M3736 4981V5396M3736 4981H4151M3736 5396H3321M3736 5396H4151M3321 5396H2906M3321 1661H3736M3321 1661V2076M3321 1661H2906M3736 1661V2076M3736 1661H4151M3736 2076H3321M3736 2076H4151M3321 2076H2906M9961 4981H10376M9961 4981V5396M9961 4981H9546M10376 4981V5396M10376 4981H10791M10376 5396H9961M10376 5396H10791M9961 5396H9546M9961 1661H10376M9961 1661V2076M9961 1661H9546M10376 1661V2076M10376 1661H10791M10376 2076H9961M10376 2076H10791M9961 2076H9546M3321 3321H3736M3321 3321V3736M3321 3321H2906M3736 3321V3736M3736 3321H4151M3736 3736H3321M3736 3736H4151M3321 3736H2906M3321 1H3736M3321 1V416M3321 1H2906M3736 1V416M3736 1H4151M3736 416H3321M3736 416H4151M3321 416H2906M9961 3321H10376M9961 3321V3736M9961 3321H9546M10376 3321V3736M10376 3321H10791M10376 3736H9961M10376 3736H10791M9961 3736H9546M9961 1H10376M9961 1V416M9961 1H9546M10376 1V416M10376 1H10791M10376 416H9961M10376 416H10791M9961 416H9546M1661 4981H2076M1661 4981V5396M1661 4981H1246M2076 4981V5396M2076 4981H2491M2076 5396H1661M2076 5396H2491M1661 5396H1246M1661 1661H2076M1661 1661V2076M1661 1661H1246M2076 1661V2076M2076 1661H2491M2076 2076H1661M2076 2076H2491M1661 2076H1246M8301 4981H8716M8301 4981V5396M8301 4981H7886M8716 4981V5396M8716 4981H9131M8716 5396H8301M8716 5396H9131M8301 5396H7886M8301 1661H8716M8301 1661V2076M8301 1661H7886M8716 1661V2076M8716 1661H9131M8716 2076H8301M8716 2076H9131M8301 2076H7886M1661 3321H2076M1661 3321V3736M1661 3321H1246M2076 3321V3736M2076 3321H2491M2076 3736H1661M2076 3736H2491M1661 3736H1246M1661 1H2076M1661 1V416M1661 1H1246M2076 1V416M2076 1H2491M2076 416H1661M2076 416H2491M1661 416H1246M8301 3321H8716M8301 3321V3736M8301 3321H7886M8716 3321V3736M8716 3321H9131M8716 3736H8301M8716 3736H9131M8301 3736H7886M8301 1H8716M8301 1V416M8301 1H7886M8716 1V416M8716 1H9131M8716 416H8301M8716 416H9131M8301 416H7886M4981 4981H5396M4981 4981V5396M4981 4981H4566M5396 4981V5396M5396 4981H5811M5396 5396H4981M5396 5396H5811M4981 5396H4566M4981 1661H5396M4981 1661V2076M4981 1661H4566M5396 1661V2076M5396 1661H5811M5396 2076H4981M5396 2076H5811M4981 2076H4566M11621 4981H12036M11621 4981V5396M11621 4981H11206M12036 4981V5396M12036 4981H12451M12036 5396H11621M12036 5396H12451M11621 5396H11206M11621 1661H12036M11621 1661V2076M11621 1661H11206M12036 1661V2076M12036 1661H12451M12036 2076H11621M12036 2076H12451M11621 2076H11206M4981 3321H5396M4981 3321V3736M4981 3321H4566M5396 3321V3736M5396 3321H5811M5396 3736H4981M5396 3736H5811M4981 3736H4566M4981 1H5396M4981 1V416M4981 1H4566M5396 1V416M5396 1H5811M5396 416H4981M5396 416H5811M4981 416H4566M11621 3321H12036M11621 3321V3736M11621 3321H11206M12036 3321V3736M12036 3321H12451M12036 3736H11621M12036 3736H12451M11621 3736H11206M11621 1H12036M11621 1V416M11621 1H11206M12036 1V416M12036 1H12451M12036 416H11621M12036 416H12451M11621 416H11206M831 5811H1246M831 5811V6226M831 5811V5396M1246 5811V6226M1246 5811V5396M1246 6226H831M1246 6226V6641M831 6226V6641M831 2491H1246M831 2491V2906M831 2491V2076M1246 2491V2906M1246 2491V2076M1246 2906H831M1246 2906V3321M831 2906V3321M7471 5811H7886M7471 5811V6226M7471 5811V5396M7886 5811V6226M7886 5811V5396M7886 6226H7471M7886 6226V6641M7471 6226V6641M7471 2491H7886M7471 2491V2906M7471 2491V2076M7886 2491V2906M7886 2491V2076M7886 2906H7471M7886 2906V3321M7471 2906V3321M831 4151H1246M831 4151V4566M831 4151V3736M1246 4151V4566M1246 4151V3736M1246 4566H831M1246 4566V4981M831 4566V4981M831 831H1246M831 831V1246M831 831V416M1246 831V1246M1246 831V416M1246 1246H831M1246 1246V1661M831 1246V1661M7471 4151H7886M7471 4151V4566M7471 4151V3736M7886 4151V4566M7886 4151V3736M7886 4566H7471M7886 4566V4981M7471 4566V4981M7471 831H7886M7471 831V1246M7471 831V416M7886 831V1246M7886 831V416M7886 1246H7471M7886 1246V1661M7471 1246V1661M4151 5811H4566M4151 5811V6226M4151 5811V5396M4566 5811V6226M4566 5811V5396M4566 6226H4151M4566 6226V6641M4151 6226V6641M4151 2491H4566M4151 2491V2906M4151 2491V2076M4566 2491V2906M4566 2491V2076M4566 2906H4151M4566 2906V3321M4151 2906V3321M10791 5811H11206M10791 5811V6226M10791 5811V5396M11206 5811V6226M11206 5811V5396M11206 6226H10791M11206 6226V6641M10791 6226V6641M10791 2491H11206M10791 2491V2906M10791 2491V2076M11206 2491V2906M11206 2491V2076M11206 2906H10791M11206 2906V3321M10791 2906V3321M4151 4151H4566M4151 4151V4566M4151 4151V3736M4566 4151V4566M4566 4151V3736M4566 4566H4151M4566 4566V4981M4151 4566V4981M4151 831H4566M4151 831V1246M4151 831V416M4566 831V1246M4566 831V416M4566 1246H4151M4566 1246V1661M4151 1246V1661M10791 4151H11206M10791 4151V4566M10791 4151V3736M11206 4151V4566M11206 4151V3736M11206 4566H10791M11206 4566V4981M10791 4566V4981M10791 831H11206M10791 831V1246M10791 831V416M11206 831V1246M11206 831V416M11206 1246H10791M11206 1246V1661M10791 1246V1661M2491 5811H2906M2491 5811V6226M2491 5811V5396M2906 5811V6226M2906 5811V5396M2906 6226H2491M2906 6226V6641M2491 6226V6641M2491 2491H2906M2491 2491V2906M2491 2491V2076M2906 2491V2906M2906 2491V2076M2906 2906H2491M2906 2906V3321M2491 2906V3321M9131 5811H9546M9131 5811V6226M9131 5811V5396M9546 5811V6226M9546 5811V5396M9546 6226H9131M9546 6226V6641M9131 6226V6641M9131 2491H9546M9131 2491V2906M9131 2491V2076M9546 2491V2906M9546 2491V2076M9546 2906H9131M9546 2906V3321M9131 2906V3321M2491 4151H2906M2491 4151V4566M2491 4151V3736M2906 4151V4566M2906 4151V3736M2906 4566H2491M2906 4566V4981M2491 4566V4981M2491 831H2906M2491 831V1246M2491 831V416M2906 831V1246M2906 831V416M2906 1246H2491M2906 1246V1661M2491 1246V1661M9131 4151H9546M9131 4151V4566M9131 4151V3736M9546 4151V4566M9546 4151V3736M9546 4566H9131M9546 4566V4981M9131 4566V4981M9131 831H9546M9131 831V1246M9131 831V416M9546 831V1246M9546 831V416M9546 1246H9131M9546 1246V1661M9131 1246V1661M5811 5811H6226M5811 5811V6226M5811 5811V5396M6226 5811V6226M6226 5811V5396M6226 6226H5811M6226 6226V6641M5811 6226V6641M5811 2491H6226M5811 2491V2906M5811 2491V2076M6226 2491V2906M6226 2491V2076M6226 2906H5811M6226 2906V3321M5811 2906V3321M12451 5811H12866M12451 5811V6226M12451 5811V5396M12866 5811V6226M12866 5811V5396M12866 5811H13281M12866 6226H12451M12866 6226V6641M12866 6226H13281M12451 6226V6641M12451 2491H12866M12451 2491V2906M12451 2491V2076M12866 2491V2906M12866 2491V2076M12866 2491H13281M12866 2906H12451M12866 2906V3321M12866 2906H13281M12451 2906V3321M5811 4151H6226M5811 4151V4566M5811 4151V3736M6226 4151V4566M6226 4151V3736M6226 4566H5811M6226 4566V4981M5811 4566V4981M5811 831H6226M5811 831V1246M5811 831V416M6226 831V1246M6226 831V416M6226 1246H5811M6226 1246V1661M5811 1246V1661M12451 4151H12866M12451 4151V4566M12451 4151V3736M12866 4151V4566M12866 4151V3736M12866 4151H13281M12866 4566H12451M12866 4566V4981M12866 4566H13281M12451 4566V4981M12451 831H12866M12451 831V1246M12451 831V416M12866 831V1246M12866 831V416M12866 831H13281M12866 1246H12451M12866 1246V1661M12866 1246H13281M12451 1246V1661M831 4981H1246M831 4981V5396M1246 4981V5396M1246 5396H831M831 1661H1246M831 1661V2076M1246 1661V2076M1246 2076H831M7471 4981H7886M7471 4981V5396M7886 4981V5396M7886 5396H7471M7471 1661H7886M7471 1661V2076M7886 1661V2076M7886 2076H7471M831 3321H1246M831 3321V3736M1246 3321V3736M1246 3736H831M831 1H1246M831 1V416M1246 1V416M1246 416H831M7471 3321H7886M7471 3321V3736M7886 3321V3736M7886 3736H7471M7471 1H7886M7471 1V416M7886 1V416M7886 416H7471M4151 4981H4566M4151 4981V5396M4566 4981V5396M4566 5396H4151M4151 1661H4566M4151 1661V2076M4566 1661V2076M4566 2076H4151M10791 4981H11206M10791 4981V5396M11206 4981V5396M11206 5396H10791M10791 1661H11206M10791 1661V2076M11206 1661V2076M11206 2076H10791M4151 3321H4566M4151 3321V3736M4566 3321V3736M4566 3736H4151M4151 1H4566M4151 1V416M4566 1V416M4566 416H4151M10791 3321H11206M10791 3321V3736M11206 3321V3736M11206 3736H10791M10791 1H11206M10791 1V416M11206 1V416M11206 416H10791M2491 4981H2906M2491 4981V5396M2906 4981V5396M2906 5396H2491M2491 1661H2906M2491 1661V2076M2906 1661V2076M2906 2076H2491M9131 4981H9546M9131 4981V5396M9546 4981V5396M9546 5396H9131M9131 1661H9546M9131 1661V2076M9546 1661V2076M9546 2076H9131M2491 3321H2906M2491 3321V3736M2906 3321V3736M2906 3736H2491M2491 1H2906M2491 1V416M2906 1V416M2906 416H2491M9131 3321H9546M9131 3321V3736M9546 3321V3736M9546 3736H9131M9131 1H9546M9131 1V416M9546 1V416M9546 416H9131M5811 4981H6226M5811 4981V5396M6226 4981V5396M6226 5396H5811M5811 1661H6226M5811 1661V2076M6226 1661V2076M6226 2076H5811M12451 4981H12866M12451 4981V5396M12866 4981V5396M12866 4981H13281M12866 5396H12451M12866 5396H13281M12451 1661H12866M12451 1661V2076M12866 1661V2076M12866 1661H13281M12866 2076H12451M12866 2076H13281M5811 3321H6226M5811 3321V3736M6226 3321V3736M6226 3736H5811M5811 1H6226M5811 1V416M6226 1V416M6226 416H5811M12451 3321H12866M12451 3321V3736M12866 3321V3736M12866 3321H13281M12866 3736H12451M12866 3736H13281M12451 1H12866M12451 1V416M12866 1V416M12866 1H13281V416M12866 416H12451M12866 416H13281M416 6641H831M7056 6641H6641M7056 6641H7471M6641 6641H6226M3736 6641H3321M3736 6641H4151M3321 6641H2906M10376 6641H9961M10376 6641H10791M9961 6641H9546M2076 6641H1661M2076 6641H2491M1661 6641H1246M8716 6641H8301M8716 6641H9131M8301 6641H7886M5396 6641H4981M5396 6641H5811M4981 6641H4566M12036 6641H11621M12036 6641H12451M11621 6641H11206M1246 6641H831M7886 6641H7471M4566 6641H4151M11206 6641H10791M2906 6641H2491M9546 6641H9131M6226 6641H5811M12866 6641H12451M12866 6641H13281V6226M13281 5811V6226M13281 5811V5396M13281 2491V2906M13281 2491V2076M13281 2906V3321M13281 4151V4566M13281 4151V3736M13281 4566V4981M13281 831V1246M13281 831V416M13281 1246V1661M13281 4981V5396M13281 1661V2076M13281 3321V3736" stroke="white" stroke-width="2"/>
</svg>
